Simulation
nRows=28
nColumns=15
endheader
time  TH_x TH_y TH_z SC_y  SC_z  SC_x  AC_y  AC_z  AC_x  GH_y  GH_z  GH_yy  EL_x  PS_y
1.55  0.000000  0.000000  0.000000  -33.954497564061064  6.640203578716482  46.869612329634606  54.24543470627282  -13.028509298897957  -18.029893026545626  20.464596574058774  56.25499133164205  -17.42173753121898  18.297245249619202  0.000000
1.581  0.000000  0.000000  0.000000  -34.044028705806014  6.729198427324569  46.80329234200928  54.32105553045092  -12.810780810771611  -17.729601032367288  20.43756421744805  56.74330943642327  -17.51792813971508  18.24647417774021  0.000000
1.612  0.000000  0.000000  0.000000  -34.12235106476404  6.796303946312283  46.71799409788114  54.3936863356948  -12.612700748736161  -17.46574837784411  20.430688970656785  57.13901280914977  -17.623707678849822  18.20089967861437  0.000000
1.643  0.000000  0.000000  0.000000  -34.18997344487925  6.841785305575328  46.61832709032805  54.46214965700864  -12.435278857101117  -17.24117699922859  20.443318074220304  57.43981383770221  -17.739319438326035  18.160523651452994  0.000000
1.674  0.000000  0.000000  0.000000  -34.24466424905126  6.865399126330249  46.504353122394086  54.52599481788643  -12.279610600648287  -17.058153034012417  20.474467994474406  57.644482190241256  -17.8651948964494  18.125513651412533  0.000000
1.705  0.000000  0.000000  0.000000  -34.28744697167173  6.867499408162872  46.38004463656281  54.58459568115826  -12.147021689337532  -16.918261838961413  20.523416057453574  57.751891148748726  -18.001170123399984  18.09584803727466  0.000000
1.736  0.000000  0.000000  0.000000  -34.316596151720496  6.847881584052457  46.24486982579996  54.638030277087466  -12.03884717432077  -16.82255726121972  20.589135179758298  57.76192836580541  -18.147219906551225  18.07171059925865  0.000000
1.767  0.000000  0.000000  0.000000  -34.33365049523386  6.806918298934727  46.1020024779976  54.686235932851964  -11.956518670804138  -16.77137940548792  20.67090281206597  57.67464454304994  -18.302762484295727  18.053060179252316  0.000000
1.798  0.000000  0.000000  0.000000  -34.33738773783646  6.74442716431519  45.95017786710257  54.729813493830356  -11.901457465092436  -16.764563625445643  20.76770462664884  57.4910555659511  -18.467326890386495  18.04007869713987  0.000000
1.829  0.000000  0.000000  0.000000  -34.32983743487635  6.66081693706494  45.791643763390994  54.769203518572915  -11.875078652069122  -16.80114142559161  20.87883366043404  57.21237079171122  -18.63987323197565  18.03271311516226  0.000000
1.8599999999999999  0.000000  0.000000  0.000000  -34.31023982212286  6.555983437607777  45.624306770434586  54.8054352046138  -11.87879074694232  -16.879674612941685  21.003307565126843  56.840691515254726  -18.819469139600077  18.031130925430578  0.000000
1.891  0.000000  0.000000  0.000000  -34.2810294552863  6.430435177884681  45.44946691567655  54.83926287042605  -11.913867107577335  -16.997854141387418  21.14044439549507  56.3782529288471  -19.004575737315577  18.03527620095438  0.000000
1.922  0.000000  0.000000  0.000000  -34.24176957916998  6.284209617580591  45.264260059859595  54.871860742056974  -11.98151139584966  -17.15304559336647  21.289341977982907  55.828023862177155  -19.193801019537617  18.04529220533707  0.000000
1.953  0.000000  0.000000  0.000000  -34.19508532630973  6.117941452831083  45.0692642788479  54.90388641744906  -12.082575561701312  -17.34183487060965  21.449408964597882  55.19288638163744  -19.385120320979762  18.06111973133856  0.000000
1.984  0.000000  0.000000  0.000000  -34.140577757234475  5.93180142690521  44.8611828115652  54.936147915084824  -12.217680494046533  -17.56082632624785  21.61991483860427  54.47619642962908  -19.57674379443531  18.082865934273254  0.000000
2.015  0.000000  0.000000  0.000000  -34.08074071077111  5.726504335618587  44.640402840721435  54.968633202946656  -12.386858674352997  -17.806152542009904  21.80042590969953  53.68087887760338  -19.766249779452448  18.110431757832355  0.000000
2.046  0.000000  0.000000  0.000000  -34.01494011523345  5.502299855410079  44.40376670164451  55.0012045628827  -12.589783560472506  -18.07448253610124  21.990404013001218  52.81010110210138  -19.951550524500117  18.143898596076244  0.000000
2.077  0.000000  0.000000  0.000000  -33.94535573327346  5.259992154305285  44.15210178608312  55.03263730610378  -12.825482598634792  -18.362446967464145  22.189525385952695  51.866325123881765  -20.130003715717567  18.183079314885312  0.000000
2.108  0.000000  0.000000  0.000000  -33.87091853626161  4.999790708280542  43.8829569406783  55.0614338990961  -13.092562330064244  -18.667837559559292  22.397132899496736  50.85218900317096  -20.299346383173962  18.22787429962877  0.000000
2.139  0.000000  0.000000  0.000000  -33.79362812705074  4.72292437178325  43.59796190873429  55.08458672503082  -13.389250506679645  -18.988699457990286  22.612739096034282  49.76951645640514  -20.456675094799486  18.27793335339707  0.000000
2.17  0.000000  0.000000  0.000000  -33.712476422441306  4.430704956217119  43.294517421183784  55.098848081229235  -13.713273491160253  -19.323655936612557  22.836936464431865  48.621112026741955  -20.600428724535824  18.332739210277243  0.000000
2.201  0.000000  0.000000  0.000000  -33.628507113311535  4.123924545376891  42.974697810240045  55.101091214462734  -14.061845326784756  -19.67118693065337  23.070546961936486  47.409667351366416  -20.728389026717384  18.39268725143079  0.000000
2.232  0.000000  0.000000  0.000000  -33.53959924816126  3.8035006150727897  42.63832405154747  55.08954856074158  -14.433183181767394  -20.029357570201075  23.313680606179986  46.13796790931358  -20.838397279659866  18.45780633145969  0.000000
2.263  0.000000  0.000000  0.000000  -33.44718519504681  3.47149184985192  42.28929603084432  55.06163588218924  -14.825646090396171  -20.395946727988527  23.566568514488065  44.808182864772974  -20.927985198303624  18.52810872309399  0.000000
2.294  0.000000  0.000000  0.000000  -33.349854491761086  3.1297362611860566  41.92726693673752  55.015061169167026  -15.237040840232273  -20.769606178489912  23.830015801396186  43.423419456795955  -20.996590311082564  18.603533137792994  0.000000
2.325  0.000000  0.000000  0.000000  -33.24827031742336  2.7799758861492228  41.55622942112325  54.94722763409979  -15.664828013151627  -21.149147978781848  24.103900467030254  41.98628357152639  -21.04220992357862  18.683807965409382  0.000000
2.356  0.000000  0.000000  0.000000  -33.1401898740753  2.4239844630937624  41.176697282931165  54.8567948874122  -16.10660109314631  -21.533309560148282  24.387451644838965  40.499557641075285  -21.06356819213888  18.768765539193303  0.000000
2.387  0.000000  0.000000  0.000000  -33.02660678026896  2.0640533635041183  40.79332500196686  54.74198858016487  -16.560265406831626  -21.920739418277044  24.67940698763058  38.96556730298396  -21.058692199265323  18.85847689206461  0.000000
